<?xml version="1.0" standalone="no"?>
<!DOCTYPE svg PUBLIC "-//W3C//DTD SVG 1.1//EN" "http://www.w3.org/Graphics/SVG/1.1/DTD/svg11.dtd" >
<svg xmlns="http://www.w3.org/2000/svg" xmlns:xlink="http://www.w3.org/1999/xlink" version="1.1">
<metadata></metadata>
<defs>
<font id="helvetica_neue_lt_cyrilli45Lt" horiz-adv-x="1206" >
<font-face units-per-em="2048" ascent="1638" descent="-410" />
<missing-glyph horiz-adv-x="603" />
<glyph horiz-adv-x="0" />
<glyph horiz-adv-x="682" />
<glyph unicode=" "  horiz-adv-x="603" />
<glyph unicode="&#x09;" horiz-adv-x="603" />
<glyph unicode="&#xa0;" horiz-adv-x="603" />
<glyph unicode="!" horiz-adv-x="522" d="M180 0v215h163v-215h-163zM189 1092v453h145v-453l-32 -703h-80z" />
<glyph unicode="&#x22;" horiz-adv-x="802" d="M182 1500h118l-16 -607h-87zM506 1500h115l-16 -607h-83z" />
<glyph unicode="#" d="M37 562h267l69 378h-245v104h265l85 456h117l-85 -456h298l85 456h116l-85 -456h248v-104h-267l-70 -378h246l2 -104h-267l-85 -458h-116l84 458h-297l-85 -458h-118l85 458h-245zM421 562h298l69 378h-297z" />
<glyph unicode="$" d="M50 447v11h134v-26q0 -172 95.5 -257t273.5 -97v647q-85 18 -147.5 37.5t-124 52t-100 73.5t-62.5 102.5t-24 138.5q0 178 123.5 288.5t334.5 123.5v157h81v-157q214 -1 337 -108.5t123 -292.5v-22h-133q0 157 -83 230t-244 81v-594q506 -74 506 -435q0 -196 -139 -314.5 t-367 -118.5v-189h-81v189q-244 3 -373.5 127t-129.5 353zM228 1140q0 -55 18.5 -100t49 -75.5t74 -54t88 -36.5t95.5 -21v574q-151 -10 -238 -87t-87 -200zM634 76q170 3 270.5 90.5t100.5 231.5q0 39 -8 73t-24 61t-35 48.5t-48 38.5t-55.5 29.5t-63.5 24t-66.5 19 t-70.5 16.5v-632z" />
<glyph unicode="%" horiz-adv-x="1929" d="M147 1131q0 192 92.5 299t257.5 107q164 0 251 -102.5t87 -294.5q0 -201 -90 -311t-254 -110q-167 0 -255.5 106t-88.5 306zM267 1123q0 -150 58 -230.5t166 -80.5q109 0 168.5 84t59.5 239q0 151 -58 230t-168.5 79t-168 -82.5t-57.5 -238.5zM439 -70l922 1650h111 l-921 -1650h-112zM1102 384q0 192 92.5 299t257.5 107t252 -102t87 -295q0 -200 -90.5 -311t-254.5 -111q-166 0 -255 106.5t-89 306.5zM1222 375q0 -149 58 -229.5t166 -80.5q72 0 123 37.5t78 110.5t27 176q0 151 -57.5 229t-168.5 78q-110 0 -168 -82t-58 -239z" />
<glyph unicode="&#x26;" horiz-adv-x="1326" d="M83 389q0 65 22 126.5t58 110t87 93.5t102.5 78t111.5 63q-23 28 -37.5 46t-36.5 48t-36 52.5t-30.5 53t-26 57t-15.5 57t-6 59.5q0 137 96.5 223.5t250.5 86.5q97 0 173.5 -39t119.5 -109t43 -158q0 -56 -18 -108t-45.5 -91.5t-70.5 -79.5t-81 -67.5t-89 -59.5l327 -401 q45 119 52 254h128q-3 -87 -29.5 -187.5t-64.5 -168.5l278 -328h-174l-176 215q-82 -123 -192.5 -184.5t-258.5 -61.5q-135 0 -240.5 53.5t-163.5 149t-58 217.5zM219 391q0 -42 12 -82t34 -74t52.5 -62.5t67.5 -48t80.5 -30.5t89.5 -11q115 0 207 60t156 163l-380 467 q-9 -6 -28 -18q-39 -25 -59.5 -38.5t-57 -39.5t-56.5 -45t-45.5 -48.5t-39 -57t-23.5 -62.5t-10 -73zM404 1235q0 -46 19.5 -92t44 -77t60.5 -74.5t54 -71.5q247 138 247 309q0 86 -60 145t-150 59q-93 0 -154 -56.5t-61 -141.5z" />
<glyph unicode="'" horiz-adv-x="603" d="M243 1500h117l-14 -607h-87z" />
<glyph unicode="(" horiz-adv-x="522" d="M110 569q0 249 82.5 524.5t224.5 464.5h109q-134 -213 -206.5 -470t-72.5 -521q0 -256 72.5 -509.5t206.5 -471.5h-109q-77 134 -128.5 241t-94.5 228.5t-63.5 248t-20.5 265.5z" />
<glyph unicode=")" horiz-adv-x="522" d="M2 -414q134 218 206 471t72 510q0 175 -32.5 349.5t-94.5 337.5t-151 304h108q72 -95 130.5 -219t96.5 -254t59 -263t21 -253q0 -139 -20.5 -265.5t-63.5 -248t-94.5 -228.5t-128.5 -241h-108z" />
<glyph unicode="*" horiz-adv-x="763" d="M58 1315l29 83l249 -89v265h89v-265l250 89l31 -83l-254 -84l155 -212l-66 -53l-162 219l-157 -217l-73 53l157 210z" />
<glyph unicode="+" horiz-adv-x="1301" d="M110 471v107h480v470h118v-470h481v-107h-481v-471h-118v471h-480z" />
<glyph unicode="," horiz-adv-x="603" d="M201 -209q51 22 74 71.5t25 137.5h-85v224h178v-161q0 -45 -2.5 -79.5t-9 -73t-20 -67.5t-34 -57t-52.5 -49.5t-74 -36.5v91z" />
<glyph unicode="-" horiz-adv-x="802" d="M130 530v132h545v-132h-545z" />
<glyph unicode="." horiz-adv-x="603" d="M215 0v224h178v-224h-178z" />
<glyph unicode="/" horiz-adv-x="721" d="M-33 -37l680 1620h113l-677 -1620h-116z" />
<glyph unicode="0" d="M74 727q0 799 527 799q532 0 532 -788q0 -72 -5 -138t-16 -136.5t-31 -131t-48 -117.5t-69.5 -101.5t-92.5 -78.5t-119 -52t-149 -18q-94 0 -170.5 24t-131 64t-95.5 99t-65.5 123.5t-40 143.5t-21 152t-5.5 156zM215 723q0 -64 3 -119t13.5 -122.5t27 -121.5t46 -107.5 t69.5 -89.5t98.5 -58t130.5 -22q387 0 387 659q0 48 -1.5 91.5t-7 97t-14 99.5t-23.5 95.5t-35.5 89t-50 76t-65.5 61t-84.5 38.5t-105.5 14q-74 0 -133.5 -24t-99 -63t-69 -97.5t-46 -115.5t-26 -129.5t-12 -129t-2.5 -122.5z" />
<glyph unicode="1" d="M213 1129v104q49 1 74 2.5t64 4.5t58 7t48.5 11.5t44 18t35.5 26t32.5 35t25.5 46t24 59t19 73.5h111v-1516h-144v1129h-392z" />
<glyph unicode="2" d="M78 0q4 67 20.5 127t36 105.5t58 93.5t67.5 78.5t85 73t89.5 65.5t100.5 67q14 9 20 13q5 3 15 10q69 45 105 70t94 74.5t87.5 91t53.5 102t24 125.5q0 141 -93 227t-244 86q-77 0 -137 -22t-99 -59.5t-64.5 -91.5t-36 -113.5t-10.5 -130.5h-134v19q0 160 58 276.5 t168 179t261 62.5q213 0 341.5 -117.5t128.5 -313.5q0 -61 -16 -118.5t-38 -102t-64.5 -92.5t-75 -79.5t-91 -74.5t-91.5 -64.5t-96 -62.5l-21 -13.5t-22 -13.5q-40 -26 -61 -40t-58.5 -40.5t-59 -45.5t-50 -48t-45 -55.5t-31.5 -59.5t-21 -68q8 0 21 1t16 1h810v-122h-1001 z" />
<glyph unicode="3" d="M72 449v35h133v-6q0 -122 46 -210.5t133.5 -135.5t208.5 -47q166 0 273 94t107 242q0 71 -22 127t-58.5 91.5t-88.5 58.5t-108.5 32.5t-122.5 9.5q-41 0 -74 -2v115h56q66 0 104 5t79 19q86 32 133 98t47 156q0 84 -39.5 147.5t-113 98t-170.5 34.5q-111 0 -190 -44.5 t-121.5 -129.5t-47.5 -206h-128q3 235 133 365t360 130q205 0 330.5 -107t125.5 -282q0 -124 -68 -212t-188 -117q150 -31 230.5 -127t80.5 -244q0 -139 -65.5 -246t-184.5 -166.5t-274 -59.5q-236 0 -376 131.5t-140 352.5z" />
<glyph unicode="4" d="M65 377v129l712 1014h116v-1029h230v-114h-230v-377h-127v377h-701zM176 491h590v599q0 146 2 250q-248 -387 -592 -849z" />
<glyph unicode="5" d="M78 435h135q8 -160 107 -256t262 -96q109 0 197 52t137.5 144.5t49.5 207.5q0 177 -108.5 289t-277.5 112q-219 0 -337 -176l-121 5l149 783h758v-122h-658l-108 -525q119 152 344 152q107 0 199.5 -38t158 -105t103 -162t37.5 -205q0 -149 -66.5 -269.5t-186.5 -189.5 t-270 -69q-225 0 -362 127t-142 341z" />
<glyph unicode="6" d="M89 712q0 396 142 607.5t409 211.5q193 0 310 -103.5t142 -294.5h-137q-20 130 -103 205t-216 75q-59 0 -110 -15t-88.5 -40.5t-69 -64t-53 -79t-38 -93.5t-26.5 -99.5t-17 -104t-10 -101t-5 -95.5q31 63 74 112.5t96.5 83.5t117.5 51.5t135 17.5q140 0 251 -64 t173.5 -178t62.5 -257q0 -150 -65 -269t-181 -186t-262 -67q-136 0 -248 60.5t-180 171.5q-26 43 -45.5 94.5t-30.5 101t-17.5 108t-8.5 106.5t-2 105zM250 484q0 -113 47.5 -204.5t132.5 -143t191 -51.5q160 0 263.5 111t103.5 282q0 174 -103 283t-268 109 q-105 0 -189 -50t-131 -138t-47 -198z" />
<glyph unicode="7" d="M110 1372v128h980v-124q-268 -281 -429 -633t-188 -743h-148q20 368 192 735.5t440 636.5h-847z" />
<glyph unicode="8" d="M83 427q0 153 81 256t227 137q-117 33 -182.5 118.5t-65.5 207.5q0 176 126 282.5t334 106.5t333 -104t125 -276q0 -84 -29 -150.5t-83.5 -113t-132.5 -71.5q95 -20 164 -71.5t107 -130.5t38 -177q0 -218 -140.5 -344t-383.5 -126q-157 0 -274.5 56t-180.5 159t-63 241z M222 432q0 -156 103.5 -250.5t277.5 -94.5q114 0 200.5 42t133.5 120.5t47 182.5q0 150 -105 240t-280 90q-171 0 -274 -90.5t-103 -239.5zM278 1140q0 -124 88.5 -197t236.5 -73q150 0 236.5 73t86.5 199q0 127 -86 199t-237 72q-150 0 -237.5 -73.5t-87.5 -199.5z" />
<glyph unicode="9" d="M74 1013q0 149 65 268t180.5 185.5t260.5 66.5q91 0 169 -25t140.5 -73.5t109.5 -119.5q60 -92 86.5 -216t26.5 -311q0 -236 -44 -397q-55 -203 -184 -313.5t-311 -110.5q-192 0 -318.5 108t-142.5 288h133q20 -129 109 -203.5t222 -74.5q63 0 116.5 18t92 48.5t69.5 75 t51 92t34.5 104.5t22 108t11.5 107q4 50 4 114v41q-56 -137 -162 -209t-255 -72q-141 0 -251.5 64t-172.5 178.5t-62 258.5zM213 1021q0 -171 101.5 -279t263.5 -108q163 0 266 107.5t103 277.5q0 171 -105 282.5t-266 111.5q-103 0 -186 -50.5t-130 -140.5t-47 -201z" />
<glyph unicode=":" horiz-adv-x="603" d="M215 0v224h178v-224h-178zM215 864v224h178v-224h-178z" />
<glyph unicode=";" horiz-adv-x="603" d="M201 -209q51 22 74 71.5t25 137.5h-85v224h178v-161q0 -45 -2.5 -79.5t-9 -73t-20 -67.5t-34 -57t-52.5 -49.5t-74 -36.5v91zM215 864v224h178v-224h-178z" />
<glyph unicode="&#x3c;" horiz-adv-x="1301" d="M104 506v117l1079 434v-117l-945 -376l945 -373v-115z" />
<glyph unicode="=" horiz-adv-x="1301" d="M110 298v104h1079v-104h-1079zM110 694v105h1079v-105h-1079z" />
<glyph unicode="&#x3e;" horiz-adv-x="1301" d="M120 76v115l944 373l-944 376v117l1078 -434v-117z" />
<glyph unicode="?" horiz-adv-x="1164" d="M106 1064q0 108 30 199.5t87.5 162t151 110.5t211.5 40q202 0 327 -110.5t125 -288.5q0 -42 -7.5 -80.5t-17 -68.5t-30 -63t-36 -55t-46 -53.5t-48.5 -49t-54 -51.5q-15 -13 -22 -20q-28 -27 -48.5 -50t-35.5 -43.5t-24.5 -44.5t-15.5 -44t-8.5 -50t-3.5 -55.5t-1 -66.5 h-130q0 39 1 71t5.5 62t8 52t14 47t17 40.5t23.5 39t27.5 37t35.5 40t40 41.5l48 48l9.5 9.5t8.5 9t10 9.5q71 72 104 138.5t33 141.5q0 129 -86.5 208.5t-224.5 79.5q-73 0 -132.5 -21.5t-98.5 -58t-65.5 -87.5t-38 -106.5t-11.5 -118.5h-132zM493 0v217h162v-217h-162z " />
<glyph unicode="@" horiz-adv-x="1736" d="M65 747q0 173 68 326.5t185 262.5t280.5 172.5t348.5 63.5q158 0 293 -47t229.5 -131t148.5 -202.5t54 -257.5q0 -112 -36 -216.5t-96 -180.5t-141 -122t-168 -46q-36 0 -67 11t-52.5 30.5t-33.5 47t-12 60.5q0 23 15 81q-26 -53 -55.5 -92.5t-68 -72t-87.5 -49 t-108 -16.5q-129 0 -209 88.5t-80 230.5q0 102 35 198t93 167t137 113.5t163 42.5q54 0 99.5 -14t79.5 -40t56.5 -65t31.5 -87l52 176h108l-123 -413q-50 -160 -50 -225q0 -44 28.5 -70t75.5 -26q84 0 162.5 69.5t126 183t47.5 236.5q0 124 -47.5 228.5t-132.5 178 t-206 114.5t-265 41q-168 0 -316.5 -58t-255 -158t-168 -239.5t-61.5 -296.5q0 -127 40.5 -238.5t112 -194.5t168 -143t211 -90t237.5 -30q172 0 322 52t295 157l43 -58q-106 -76 -205.5 -125t-214.5 -76t-243 -27q-136 0 -262 34.5t-232 101.5t-184.5 159.5t-122 216 t-43.5 264.5zM601 690q0 -112 52 -178.5t140 -66.5q58 0 111 34t90.5 87t65 117.5t41 127t13.5 113.5q0 94 -52.5 151.5t-137.5 57.5q-81 0 -156 -63t-121 -166t-46 -214z" />
<glyph unicode="A" horiz-adv-x="1367" d="M-19 0l624 1550h163l617 -1550h-163l-186 487h-708l-189 -487h-158zM373 605h617l-304 806z" />
<glyph unicode="B" horiz-adv-x="1447" d="M156 0v1545h662q79 0 148.5 -13t132 -43t107.5 -74t71 -109.5t26 -145.5q0 -125 -78 -220.5t-189 -121.5q67 -13 123.5 -39.5t103.5 -70.5t73.5 -111.5t26.5 -153.5q0 -88 -27 -161t-75 -124.5t-114 -87.5t-143 -53t-163 -17h-685zM300 126h462q51 0 93.5 3t90.5 11.5 t85.5 22.5t73 38.5t59 56.5t38 78.5t14.5 104.5q0 55 -15 100t-39.5 75.5t-61.5 54t-75.5 36.5t-87 21.5t-91 11t-92.5 2.5h-454v-616zM300 862h490q56 0 106 8t99 28t84 50.5t57 79.5t22 112q0 50 -12.5 91.5t-33.5 70t-52.5 50t-65 34t-76.5 20.5t-81.5 10.5t-84.5 2.5 h-452v-557z" />
<glyph unicode="C" horiz-adv-x="1527" d="M85 771q0 131 29.5 251t89.5 222t145 177.5t202 118.5t255 43q89 0 176 -22t164.5 -65t139 -102t101.5 -140t50 -173h-147q-36 173 -167.5 273t-321.5 100q-170 0 -299.5 -85t-200.5 -240t-71 -358.5t70 -357.5t198.5 -238t298.5 -84q92 0 169.5 24.5t136.5 69t102.5 107 t69.5 138t36 163.5h145q-16 -190 -103 -332t-231.5 -219t-328.5 -77q-159 0 -291 57.5t-224 161.5t-142.5 254.5t-50.5 332.5z" />
<glyph unicode="D" horiz-adv-x="1486" d="M154 0v1545h560q143 0 257.5 -35.5t194.5 -100t134 -157.5t79 -205.5t25 -245.5t-23 -249.5t-75 -219t-129.5 -175.5t-192.5 -115t-257 -42h-573zM302 126h388q83 0 154 14t125.5 40.5t98.5 63t75 83.5t53.5 99t35.5 113.5t19 123t6 130.5q0 97 -15.5 181.5t-46 154 t-76.5 123.5t-105.5 91.5t-135 56.5t-164.5 19h-412v-1293z" />
<glyph unicode="E" horiz-adv-x="1286" d="M156 0v1545h1073v-126h-925v-557h866v-124h-866v-612h933v-126h-1081z" />
<glyph unicode="F" horiz-adv-x="1164" d="M154 0v1545h986v-126h-840v-555h746v-126h-746v-738h-146z" />
<glyph unicode="G" horiz-adv-x="1608" d="M85 758q0 180 53.5 333t149 260t232.5 167t298 60q122 0 230 -34t193.5 -97.5t143 -160.5t76.5 -218h-141q-17 90 -63.5 163t-113.5 121t-149.5 74t-173.5 26q-177 0 -311 -85t-206.5 -242t-72.5 -365q0 -202 73 -355t206.5 -235.5t308.5 -82.5q206 0 350.5 120.5 t175.5 320.5q9 61 9 137h-530v120h660v-785h-98l-26 219l-4 69q-70 -155 -212 -240t-331 -85q-160 0 -295.5 58.5t-230.5 162t-148 251.5t-53 323z" />
<glyph unicode="H" horiz-adv-x="1527" d="M154 0v1545h148v-673h924v673h146v-1545h-146v747h-924v-747h-148z" />
<glyph unicode="I" horiz-adv-x="481" d="M167 0v1545h148v-1545h-148z" />
<glyph unicode="J" horiz-adv-x="1085" d="M52 439q0 30 2 60h141v-45q0 -71 7 -123t26.5 -100.5t52.5 -78.5t87 -47.5t129 -17.5q54 0 96.5 10t72.5 27.5t52 44.5t35.5 56.5t21 69.5t10.5 77.5t3 85.5v1087h146v-1126q0 -219 -106.5 -336.5t-330.5 -117.5q-120 0 -206 31t-138 93t-76.5 148t-24.5 202z" />
<glyph unicode="K" horiz-adv-x="1406" d="M154 0v1545h146v-831l901 831h195l-697 -631l732 -914h-190l-646 814l-295 -269v-545h-146z" />
<glyph unicode="L" horiz-adv-x="1164" d="M159 0v1545h147v-1419h868v-126h-1015z" />
<glyph unicode="M" horiz-adv-x="1807" d="M154 0v1545h200l449 -1102q18 -43 35 -90t39.5 -110.5t31.5 -90.5q13 34 47 134t55 153l443 1106h203v-1545h-141v934q0 224 17 485q-52 -156 -102 -279l-456 -1140h-132l-464 1127q-43 104 -101 284q18 -270 18 -473v-938h-142z" />
<glyph unicode="N" horiz-adv-x="1527" d="M154 0v1545h163l723 -1048q115 -166 201 -323q-10 342 -10 408v963h141v-1545h-163l-718 1038q-145 207 -205 329q12 -170 12 -368v-999h-144z" />
<glyph unicode="O" horiz-adv-x="1608" d="M76 773q0 179 53 329.5t147.5 256t230 165t296.5 59.5t296.5 -59.5t231 -166t149 -258t53.5 -331.5q0 -178 -53.5 -328.5t-148.5 -255t-231.5 -163t-298.5 -58.5q-161 0 -296 58.5t-229.5 164t-147 256.5t-52.5 331zM224 777q0 -154 41.5 -282t116.5 -217t183.5 -138 t237.5 -49q174 0 306 84.5t204 239t72 356.5t-72.5 357.5t-205.5 240.5t-306 85q-171 0 -302 -84.5t-203 -238.5t-72 -354z" />
<glyph unicode="P" horiz-adv-x="1367" d="M163 0v1545h662q109 0 197.5 -27.5t153.5 -80.5t100 -136t35 -189q0 -148 -62 -250.5t-171 -152t-258 -49.5h-509v-660h-148zM311 783h468q83 0 150.5 18t121 54.5t83.5 99t30 145.5q0 82 -26.5 143.5t-75.5 99.5t-116 57t-151 19h-484v-636z" />
<glyph unicode="Q" horiz-adv-x="1608" d="M76 764q0 179 53.5 330t148 257t230 165.5t296 59.5t296 -59t230 -164t148 -255t53.5 -327q0 -186 -59.5 -346t-168.5 -269l219 -167l-74 -93l-243 185q-69 -56 -177.5 -88t-221.5 -32q-161 0 -297 58.5t-231 163.5t-148.5 254.5t-53.5 326.5zM224 768v-6q0 -200 71 -352 q72 -155 206 -239t311 -84q160 0 280 83l-204 153l76 94l227 -179q103 114 148.5 243.5t45.5 291.5q0 199 -72.5 352.5t-205 238t-304.5 84.5q-171 0 -302.5 -85t-204 -239.5t-72.5 -355.5z" />
<glyph unicode="R" horiz-adv-x="1447" d="M156 0v1545h699q106 0 192 -23.5t152 -72.5t102.5 -130.5t36.5 -189.5q0 -100 -36.5 -178t-104 -129.5t-161.5 -74.5q141 -25 201 -107t70 -242q0 -3 2.5 -58t6 -93.5t10.5 -93t21 -94t34 -59.5h-167q-20 24 -29 84t-13 157.5t-4 101.5q-5 74 -17 127t-35.5 92 t-53.5 63.5t-77 39t-100 20t-127 5.5h-454v-690h-148zM304 808h436q52 0 94.5 2.5t90.5 11t85 22.5t72.5 38t58.5 56t36.5 78.5t13.5 103.5q0 69 -21 122t-56 86t-85.5 54t-104 29t-116.5 8h-504v-611z" />
<glyph unicode="S" horiz-adv-x="1367" d="M85 497v13h141q0 -140 60.5 -236t168 -141.5t257.5 -45.5q201 0 315.5 85t114.5 234q0 39 -7 71t-25 59t-38 47.5t-57.5 40t-71 33.5t-91.5 30.5t-106.5 29t-126.5 30.5q-3 1 -9 2q-46 11 -70 17t-68 17.5t-68 21t-61.5 25t-58.5 31.5t-48.5 37.5t-43 47t-30.5 56.5 t-21 69t-6 81q0 196 144.5 310t393.5 114q165 0 287 -51.5t195 -159.5t80 -265h-143q-10 173 -123 262.5t-307 89.5q-120 0 -207 -34t-133 -99.5t-46 -156.5q0 -37 6.5 -68t24.5 -56t35 -43.5t51.5 -35t58.5 -27.5t73 -24t78 -20t89 -20q88 -19 141.5 -32t124 -35t112 -43.5 t87 -54.5t70 -72t40.5 -92t16 -118q0 -81 -23 -149.5t-64.5 -117t-96 -85.5t-120.5 -59t-135 -32.5t-142 -10.5q-288 0 -452.5 141.5t-164.5 388.5z" />
<glyph unicode="T" d="M-13 1419v126h1233v-126h-543v-1419h-147v1419h-543z" />
<glyph unicode="U" horiz-adv-x="1486" d="M141 584v961h147v-924q0 -103 13 -182t44.5 -146.5t84 -110.5t133.5 -67t191 -24q60 0 111.5 8t92.5 22.5t74 37t58 49.5t43.5 62t30.5 73t20 84.5t11 93.5t3 102v922h148v-965q0 -301 -148.5 -457t-445.5 -156q-304 0 -457.5 156.5t-153.5 460.5z" />
<glyph unicode="V" horiz-adv-x="1286" d="M-19 1545h164l404 -1110q51 -141 98 -309q13 39 46.5 145t53.5 161l401 1113h157l-574 -1545h-171z" />
<glyph unicode="W" horiz-adv-x="1968" d="M2 1545h154l289 -1072q28 -103 71 -319q24 133 79 319l306 1072h167l313 -1087q58 -194 73 -304q10 39 33 142.5t37 159.5l291 1089h147l-427 -1545h-159l-315 1088q-59 205 -77 319q-18 -56 -45 -162.5t-40 -152.5l-309 -1092h-160z" />
<glyph unicode="X" horiz-adv-x="1245" d="M-31 0l563 795l-528 750h174l346 -495q19 -27 50 -79.5t45 -73.5q47 67 100 156l354 492h162l-527 -750l558 -795h-178l-386 553q-45 65 -58 89.5t-25 43.5q-6 -6 -14 -16.5t-15.5 -21.5t-16 -24.5t-15.5 -25t-15 -23.5t-13 -20l-391 -555h-170z" />
<glyph unicode="Y" horiz-adv-x="1326" d="M-21 1545h175l432 -646q18 -27 48 -76t37 -61q31 56 78 131l434 652h167l-612 -907v-638h-145v638z" />
<glyph unicode="Z" horiz-adv-x="1245" d="M11 0v132l1020 1287h-948v126h1115v-128l-1020 -1291h1042v-126h-1209z" />
<glyph unicode="[" horiz-adv-x="522" d="M165 -400v1968h351v-107h-223v-1751h223v-110h-351z" />
<glyph unicode="\" horiz-adv-x="721" d="M-33 1583h114l679 -1620h-116z" />
<glyph unicode="]" horiz-adv-x="522" d="M6 -290h224v1749h-224v109h352v-1968h-352v110z" />
<glyph unicode="^" horiz-adv-x="1301" d="M230 644l365 901h115l363 -901h-124l-300 765l-293 -765h-126z" />
<glyph unicode="_" horiz-adv-x="1085" d="M0 -163h1085v-108h-1085v108z" />
<glyph unicode="`" horiz-adv-x="400" d="M-72 1593h174l226 -306h-109z" />
<glyph unicode="a" horiz-adv-x="1125" d="M70 282q0 153 103.5 238.5t310.5 107.5q22 2 61.5 5.5t57 5t47 5t44 6t35.5 6t33 8t25 10t23 12.5q11 7 18 16.5t12 23t7 29.5t2 38q0 54 -13.5 95.5t-37.5 69t-61 44.5t-80.5 24.5t-98.5 7.5q-142 0 -216.5 -64.5t-87.5 -198.5h-130q5 118 59.5 202.5t153.5 128.5 t236 44q193 0 302 -83t109 -238v-608v-7v-30.5t2 -24.5t6.5 -22t12.5 -15t21 -11t31 -3q28 0 53 6v-104q-50 -17 -109 -17q-28 0 -50 6.5t-37 16.5t-26 26t-17 32t-9.5 38t-5 41t-1.5 44q-140 -224 -420 -224q-171 0 -268 83.5t-97 229.5zM213 296q0 -98 69.5 -155.5 t186.5 -57.5q76 0 145 23.5t121.5 67t83 108.5t30.5 143v182q-14 -16 -38 -27t-65.5 -20t-72.5 -13.5t-95 -12.5q-22 -3 -33 -4q-32 -4 -55 -8t-56 -11t-56.5 -15.5t-51 -21t-46 -29.5t-35 -38.5t-24.5 -49.5t-8 -61z" />
<glyph unicode="b" horiz-adv-x="1245" d="M132 0v1545h133v-640q49 118 154.5 181.5t242.5 63.5q229 0 364.5 -160t135.5 -430q0 -274 -137 -433.5t-370 -159.5q-143 0 -247 64t-151 186v-217h-125zM261 557.5q0 -219.5 104 -349.5t279 -130q173 0 276 131t103 349q0 219 -103 348.5t-278 129.5t-278 -129.5 t-103 -349z" />
<glyph unicode="c" horiz-adv-x="1125" d="M78 547q0 181 64.5 317t182.5 210t274 74q193 0 314 -101.5t144 -282.5h-139q-26 132 -107 202t-210 70q-175 0 -278.5 -130t-103.5 -348q0 -219 100 -348t269 -129q140 0 230 84t112 235h136q-28 -197 -151.5 -315t-319.5 -118q-155 0 -272 71.5t-181 203t-64 305.5z " />
<glyph unicode="d" horiz-adv-x="1245" d="M83 558q0 177 61 311t174 206.5t264 72.5q137 0 241 -60.5t156 -180.5v638h133v-1545h-124v219q-49 -124 -155 -188t-247 -64q-153 0 -267 72t-175 205.5t-61 313.5zM219 560q0 -147 46.5 -256t132.5 -167.5t201 -58.5q179 0 282 128t103 352q0 74 -14 142t-44 129.5 t-74.5 107t-110 72.5t-144.5 27q-172 0 -275 -130t-103 -346z" />
<glyph unicode="e" horiz-adv-x="1125" d="M70 545q0 131 37.5 243t104.5 190.5t162 123t206 44.5q96 0 177 -31t138.5 -85t97 -128t59 -159t19.5 -179v-38h-862q0 -72 13 -137t42.5 -123t72.5 -100.5t107 -67t142 -24.5q134 0 221 74.5t119 218.5h133q-37 -189 -160 -296.5t-317 -107.5q-154 0 -270 71.5t-179 203 t-63 307.5zM209 636h725q-11 185 -106.5 291.5t-251.5 106.5q-71 0 -129 -22t-98 -58t-69.5 -88t-46 -108t-24.5 -122z" />
<glyph unicode="f" horiz-adv-x="561" d="M11 1005v111h190v128q0 160 64.5 236t221.5 76q40 0 103 -8v-115q-45 6 -91 6q-114 0 -144 -61q-17 -36 -17 -138v-9v-5v-110h224v-111h-224v-1005h-137v1005h-190z" />
<glyph unicode="g" d="M78 567q0 173 61.5 304.5t174 203t259.5 71.5q131 0 227.5 -62t152.5 -179v211h124v-1056q0 -251 -128 -375t-371 -124q-204 0 -323.5 88t-130.5 249h137q31 -230 323 -230q102 0 173 27t113 80.5t60.5 125.5t18.5 171v187q-114 -246 -387 -246q-222 0 -353 151t-131 403 zM215 578q0 -205 98 -326.5t263 -121.5q113 0 196.5 56.5t129 161t45.5 245.5q0 199 -100 317.5t-267 118.5q-168 0 -266.5 -121.5t-98.5 -329.5z" />
<glyph unicode="h" horiz-adv-x="1164" d="M130 0v1545h135q0 -555 -2 -640q61 122 154.5 180.5t231.5 58.5q193 0 292 -105.5t99 -300.5v-738h-137v721q0 147 -71 227.5t-215 80.5q-74 0 -134 -23t-100 -62.5t-67 -96t-39 -121t-12 -138.5v-588h-135z" />
<glyph unicode="i" horiz-adv-x="400" d="M132 0v1116h137v-1116h-137zM132 1328v224h137v-224h-137z" />
<glyph unicode="j" horiz-adv-x="400" d="M-60 -308q24 -3 52 -3q19 0 31 0.5t27.5 3t24.5 6.5t20 12t17 19.5t12.5 28t9.5 38.5t5 51t2 65v1203h135v-1190q0 -40 -1 -68.5t-4 -62t-9 -56.5t-15.5 -48t-24 -41.5t-34.5 -32.5t-46 -24.5t-60 -14t-76 -5.5q-20 0 -66 6v113zM141 1330v224h135v-224h-135z" />
<glyph unicode="k" horiz-adv-x="1085" d="M135 0v1545h130v-974l623 545h183l-478 -410l509 -706h-170l-445 613l-222 -190v-423h-130z" />
<glyph unicode="l" horiz-adv-x="400" d="M135 0v1545h134v-1545h-134z" />
<glyph unicode="m" horiz-adv-x="1807" d="M132 0v1116h129v-196q47 74 97 122t119 76t155 28q122 0 205 -56.5t114 -159.5q55 103 149 159.5t222 56.5q72 0 135 -20.5t113.5 -61t80 -109t29.5 -158.5v-797h-137v760q0 130 -65.5 197.5t-192.5 67.5q-148 0 -229 -92.5t-81 -248.5v-684h-134v749q0 134 -58 205 t-188 71q-67 0 -121.5 -20t-92 -55t-63 -84.5t-37.5 -107.5t-12 -124v-634h-137z" />
<glyph unicode="n" horiz-adv-x="1164" d="M130 0v1116h129v-211q69 123 161 182t233 59q84 0 152.5 -22.5t122 -67.5t83 -120.5t29.5 -175.5v-760h-137v717q0 164 -74.5 237t-209.5 73q-78 0 -141.5 -26t-111 -77.5t-73.5 -133t-26 -187.5v-603h-137z" />
<glyph unicode="o" d="M74 558q0 177 65 311t185.5 206.5t280.5 72.5q241 0 383.5 -160.5t142.5 -434.5q0 -270 -141.5 -428t-384.5 -158q-244 0 -387.5 160t-143.5 431zM213 558q0 -221 105.5 -349t288.5 -128q178 0 282.5 128.5t104.5 345.5q0 218 -106 348.5t-285 130.5q-117 0 -205.5 -59 t-136.5 -167t-48 -250z" />
<glyph unicode="p" horiz-adv-x="1245" d="M137 -417v1533h124v-215q120 247 399 247q151 0 265.5 -73.5t176.5 -208.5t62 -313q0 -175 -62 -308.5t-175.5 -206.5t-261.5 -73q-137 0 -238 61t-158 181v-624h-132zM265 555q0 -219 103 -346.5t279 -127.5q171 0 274.5 129t103.5 343q0 220 -103.5 351.5t-279.5 131.5 t-276.5 -128t-100.5 -353z" />
<glyph unicode="q" horiz-adv-x="1245" d="M83 553q0 274 137.5 435.5t369.5 161.5q280 0 394 -247v213h126v-1530h-135q0 445 2 623q-56 -118 -157 -179t-242 -61q-151 0 -263 71t-172 203.5t-60 309.5zM219 553q0 -216 102 -343t276 -127q176 0 279 128.5t103 350.5q0 220 -101.5 348t-278.5 128 q-174 0 -277 -131t-103 -354z" />
<glyph unicode="r" horiz-adv-x="683" d="M147 0v1116h129v-267q70 155 164 218t262 66v-139q-8 0 -21 1t-16 1q-127 0 -225.5 -72.5t-131.5 -192.5q-26 -104 -26 -275v-456h-135z" />
<glyph unicode="s" horiz-adv-x="1044" d="M70 365h131q0 -139 87 -213t244 -74q137 0 220 60t83 158q0 23 -6 44.5t-15 38t-26 31.5t-31.5 25.5t-38 21t-39.5 17t-43 14t-41.5 11t-41.5 10.5q-16 3 -23 5q-18 4 -55 13q-44 9 -67 15t-64 17.5t-64.5 22.5t-56.5 28t-51.5 38t-37 47.5t-26.5 61t-8 74.5 q0 146 109.5 230.5t300.5 84.5q124 0 218 -38.5t149 -120t55 -197.5h-133q-18 244 -302 244q-120 0 -190.5 -50t-70.5 -135q0 -34 7.5 -60t30 -46t42 -33t65 -27t76.5 -22t98 -23q51 -11 81.5 -19t79.5 -23.5t80 -31.5t67.5 -41.5t57 -54.5t35 -70t14.5 -90 q0 -153 -122 -248t-320 -95q-215 0 -334 103.5t-124 296.5z" />
<glyph unicode="t" horiz-adv-x="642" d="M13 1005v111h198v340h135v-340h230v-111h-230v-707v-9v-32t0.5 -28t2.5 -26.5t5.5 -22.5t8.5 -21t12.5 -16.5t18 -14t24 -9.5t31 -7t38.5 -2q20 0 89 8v-118q-67 -8 -120 -8q-201 0 -232 128q-6 24 -8.5 48t-3.5 67t-1 130v640h-198z" />
<glyph unicode="u" horiz-adv-x="1164" d="M128 373v743h137v-684q0 -85 14 -146.5t46 -107.5t87.5 -68.5t134.5 -22.5q82 0 149 32.5t110.5 89t67 131t23.5 159.5v617h134v-1116h-126v207q-61 -119 -157.5 -179.5t-235.5 -60.5q-179 0 -281.5 103.5t-102.5 302.5z" />
<glyph unicode="v" horiz-adv-x="1004" d="M8 1116h146l260 -679q19 -50 102 -302q69 217 103 312l241 669h136l-410 -1116h-147z" />
<glyph unicode="w" horiz-adv-x="1608" d="M15 1116h148l212 -679q17 -51 79 -290q8 35 14.5 63t10 43t7 29.5t6 26.5t7 29.5t11.5 42t18 60.5l199 675h157l212 -708q21 -71 64 -261q35 149 66 257l224 712h141l-362 -1116h-148l-221 734q-24 85 -57 219q-31 -130 -56 -219l-217 -734h-153z" />
<glyph unicode="x" horiz-adv-x="1044" d="M2 0l433 586l-400 530h174l240 -326q11 -14 23 -33l24 -38t22 -33q14 21 24.5 36.5t14 21t11.5 16t22 30.5l248 326h161l-396 -521l441 -595h-174l-297 408q-7 12 -24.5 37t-32.5 48q-9 -15 -56 -83l-295 -410h-163z" />
<glyph unicode="y" horiz-adv-x="1004" d="M-2 1116h149l302 -768q15 -37 22 -56.5t10 -30t12.5 -41t22.5 -71.5q58 187 68 214l276 753h139l-439 -1157q-19 -51 -31.5 -82.5t-29 -70.5t-29 -62.5t-29 -51t-32 -42.5t-35.5 -31.5t-41.5 -24t-47 -12.5t-55.5 -5q-54 0 -120 11v119q65 -15 99 -15q20 0 37.5 4.5 t31.5 10.5t28.5 19.5t24.5 24t22 32.5t19.5 36t19 43t18 46l19.5 51q12 33 18 49z" />
<glyph unicode="z" horiz-adv-x="1004" d="M35 0v110l725 891h-677v115h855v-95l-739 -905h769v-116h-933z" />
<glyph unicode="{" horiz-adv-x="721" d="M8 549v76q83 0 142.5 23t94 66.5t50.5 101.5t16 135v165q0 115 18.5 194t64.5 137t124 87.5t194 35.5v-76q-56 -4 -98.5 -15.5t-72.5 -32t-50 -47.5t-31.5 -65.5t-16 -80t-4.5 -95.5v-143q0 -49 -2.5 -87.5t-9.5 -81.5t-19.5 -75t-33.5 -64t-50 -54.5t-71 -39.5t-94 -25 q48 -8 87 -22t67 -34t49 -42t34.5 -52.5t22.5 -59t13 -67.5t5.5 -72.5t1.5 -79.5v-120q0 -73 6 -123.5t23 -95.5t47.5 -72t79 -44t117.5 -21v-76q-83 5 -145.5 21t-107 45t-73.5 66t-45.5 92t-23 115.5t-6.5 142.5v137q0 115 -29 181t-93 98.5t-181 43.5z" />
<glyph unicode="|" horiz-adv-x="481" d="M182 -464v2171h118v-2171h-118z" />
<glyph unicode="}" horiz-adv-x="721" d="M8 -317q70 4 118.5 21t78.5 44t47.5 72t23.5 95.5t6 123.5v120q0 46 1.5 79.5t5.5 72.5t12.5 67.5t22.5 59t35 52.5t49 42t67 34t87 22q-53 8 -94.5 25t-70.5 39.5t-50 54.5t-33.5 64t-19.5 75t-9.5 81.5t-2.5 87.5v143q0 65 -6.5 113t-24.5 90t-48.5 68.5t-79 43.5 t-115.5 21v76q117 -6 195 -35.5t123.5 -87.5t64.5 -137t19 -194v-165q0 -77 16 -135t50.5 -101.5t93.5 -66.5t142 -23v-76q-116 -11 -180 -43.5t-93 -98.5t-29 -181v-137q0 -70 -4.5 -124t-16.5 -103.5t-32 -86t-50.5 -67.5t-72.5 -51t-98 -33t-128 -17v76z" />
<glyph unicode="~" horiz-adv-x="1301" d="M87 395q9 48 20 86t32 76.5t48 64t69 41.5t94 16q21 0 44 -2.5t52.5 -9.5t47.5 -11t54.5 -16t46 -15t50.5 -17.5l41 -14.5q8 -3 61.5 -23t77 -27.5t65 -17t71.5 -9.5q74 0 119.5 51t61.5 127h78q-5 -55 -22.5 -104t-48 -89t-78.5 -63.5t-107 -23.5q-42 0 -102.5 14 t-91.5 24t-101 35q-21 6 -74.5 25.5t-88 31t-79.5 22t-77 10.5q-68 0 -117.5 -50.5t-60.5 -130.5h-85z" />
<glyph unicode="&#xa3;" d="M93 85q243 184 243 402q0 106 -58 225h-178v71h134q-21 38 -26.5 48.5t-23 44t-23.5 48.5t-17.5 45t-16 51.5t-8 50t-3.5 56.5q0 122 62 217t174.5 147t257.5 52q245 0 375.5 -134.5t130.5 -377.5h-134q-5 191 -102 292t-273 101q-158 0 -256.5 -84t-98.5 -217 q0 -31 6 -62.5t13 -55t23 -57.5t25.5 -52t31.5 -57t31 -56h347v-71h-308q26 -57 37 -102t11 -98q0 -63 -19 -121.5t-54 -109.5t-73.5 -92t-90.5 -85q40 19 60.5 28t52.5 20t61.5 15.5t64.5 4.5q85 0 182 -33q11 -4 46.5 -16.5t52.5 -17.5t46 -10.5t53 -5.5q137 0 256 112 l70 -101q-60 -61 -145 -97t-174 -36q-31 0 -57 2.5t-56 10.5t-45 12.5t-55 19t-55 19.5q-97 32 -176 32q-48 0 -91.5 -13.5t-71.5 -29t-79 -49.5z" />
<glyph unicode="&#xa7;" d="M93 699q0 111 64.5 192t172.5 120q-58 53 -83 106t-25 120q0 139 104 228t267 89q123 0 211 -45t135 -131t49 -208h-133q-6 127 -71 199.5t-194 72.5q-104 0 -169 -54.5t-65 -143.5q0 -28 7 -52.5t16.5 -43.5t31 -39.5t39.5 -35.5t53 -36.5t61.5 -36.5t74 -41.5 t82.5 -46.5q11 -7 33 -20q33 -18 49.5 -28t48 -29t49.5 -32t46 -33.5t44 -37.5t37 -40t33 -45t23.5 -48t17 -54t5.5 -58q0 -104 -62 -186t-175 -127q126 -107 126 -248q0 -143 -109 -234.5t-280 -91.5q-193 0 -301 107.5t-111 292.5h135q6 -140 78.5 -213t204.5 -73 q109 0 178 57t69 148q0 22 -5.5 42.5t-12.5 37.5t-22.5 36t-28 33t-38.5 33.5t-42.5 31.5t-51 33.5t-54.5 33t-62 36.5q-23 13 -35 21q-20 11 -54.5 30t-57 32t-55.5 33t-55.5 35.5t-50.5 38.5t-47 43.5t-38.5 47.5t-30.5 54t-18.5 60t-7.5 68zM224 712q0 -71 49.5 -130 t169.5 -130q33 -20 108.5 -64t130.5 -78t103 -69q92 32 142 91.5t50 133.5q0 26 -8 51.5t-20.5 47t-32 43.5t-38.5 39t-44 35t-44 30.5t-43 27.5q-71 43 -145 84.5t-115 66t-79 53.5q-32 -14 -57.5 -29.5t-50 -37t-41 -45t-26 -54.5t-9.5 -66z" />
<glyph unicode="&#xa9;" horiz-adv-x="1736" d="M72 766q0 163 63 310.5t169.5 254t254 170t309.5 63.5t309.5 -63.5t254.5 -170t170 -254t63 -310.5q0 -161 -63 -308.5t-170 -254t-254.5 -169.5t-309.5 -63t-309.5 63t-254 169.5t-169.5 254t-63 308.5zM147 768q0 -147 57.5 -280.5t154 -230t230 -153t280 -56.5t280 57 t230 153.5t153.5 229.5t57 278q0 147 -57 280.5t-154 230t-230 153.5t-280 57q-117 0 -227 -36t-198.5 -102.5t-155.5 -155t-103.5 -198t-36.5 -227.5zM460 773q0 98 31.5 184.5t86 148t131.5 96.5t165 35q150 0 255.5 -89t117.5 -224h-97q-20 103 -92 163.5t-177 60.5 q-135 0 -220 -103t-85 -266q0 -110 40.5 -197.5t113 -135.5t165.5 -48q99 0 169 55t94 150h95q-12 -85 -62 -152t-128 -105t-170 -38q-122 0 -221 60.5t-155.5 167t-56.5 237.5z" />
<glyph unicode="&#xab;" horiz-adv-x="924" d="M128 510v134l291 272v-141l-204 -197l204 -194v-146zM478 508v134l290 276v-143l-204 -197l204 -196v-144z" />
<glyph unicode="&#xac;" horiz-adv-x="1301" d="M110 694v105h1079v-501h-108v396h-971z" />
<glyph unicode="&#xad;" horiz-adv-x="802" d="M130 530v132h545v-132h-545z" />
<glyph unicode="&#xae;" horiz-adv-x="868" d="M37 1172q0 108 53 199.5t144.5 145t197.5 53.5q108 0 199.5 -53.5t144.5 -145t53 -199.5q0 -81 -31.5 -155t-84.5 -127.5t-126.5 -85t-154.5 -31.5q-107 0 -198 53t-144 145.5t-53 200.5zM95 1170q0 -90 45.5 -168.5t123.5 -124.5t168 -46q92 0 170 46t123.5 124 t45.5 169q0 92 -45.5 170.5t-123.5 124t-170 45.5q-90 0 -168 -45.5t-123.5 -124t-45.5 -170.5zM280 975v399h150q93 0 138 -29t45 -88q0 -70 -75 -95q37 -18 52 -47t15 -79q0 -18 1.5 -28t3.5 -14.5t9 -18.5h-72q-7 21 -7.5 43.5t-3.5 31.5q-2 18 -6.5 31t-9 22t-13.5 14.5 t-15.5 9t-21.5 5t-25 1.5h-31h-6h-60v-158h-68zM348 1189h77q31 0 53.5 4t37.5 12.5t22 21t7 30.5q0 15 -5 26t-15 17t-19.5 10t-25 5.5t-24.5 2t-25 0.5h-8h-75v-129z" />
<glyph unicode="&#xb0;" horiz-adv-x="868" d="M112 1224.5q0 87.5 43.5 161.5t117.5 116.5t162 42.5q133 0 227 -93.5t94 -227t-94 -227.5t-227 -94q-88 0 -162 43t-117.5 117t-43.5 161.5zM217 1224q0 -91 63.5 -154t154 -63t153.5 63t63 154q0 90 -63.5 154t-153 64t-153.5 -64t-64 -154z" />
<glyph unicode="&#xb1;" horiz-adv-x="1301" d="M110 -17v104h1079v-104h-1079zM110 573v104h483v384h115v-384h481v-104h-481v-386h-115v386h-483z" />
<glyph unicode="&#xb5;" horiz-adv-x="1164" d="M128 -449v1565h137v-662q0 -48 2.5 -84.5t10 -76t20 -69t33.5 -56.5t50.5 -44t71 -27t94.5 -10q79 0 141 26t100.5 69t63.5 103t35 123t10 135v573h134v-1116h-126v207q-66 -123 -160 -181.5t-233 -58.5q-60 0 -127 22.5t-118 53.5v-492h-139z" />
<glyph unicode="&#xb6;" horiz-adv-x="1301" d="M106 1046q0 124 42 220.5t117.5 157t176 91t220.5 30.5h517v-95h-115v-1825h-117v1825h-274v-1825h-118v946q-139 7 -240 65.5t-155 163.5t-54 246z" />
<glyph unicode="&#xb7;" horiz-adv-x="603" d="M215 530v224h178v-224h-178z" />
<glyph unicode="&#xbb;" horiz-adv-x="924" d="M156 241v141l204 198l-204 195v141l289 -269v-133zM506 241v141l204 196l-204 193v147l291 -276v-130z" />
<glyph unicode="&#xf7;" horiz-adv-x="1301" d="M110 469v107h1079v-107h-1079zM573 29v216h152v-216h-152zM573 799v216h152v-216h-152z" />
<glyph unicode="&#x192;" d="M15 -371l22 117q46 -7 87 -7q110 0 158 70q45 62 83 256l147 778h-219l22 106h219l42 221q18 97 39 152.5t54 96.5q85 112 261 112q72 0 134 -9l-24 -115q-52 6 -104 6q-96 0 -146.5 -55.5t-77.5 -189.5l-43 -219h245l-19 -106h-246l-150 -797q-26 -137 -53 -208 t-73 -124q-42 -49 -99.5 -71t-138.5 -22q-48 0 -120 8z" />
<glyph unicode="&#x401;" horiz-adv-x="1286" d="M156 0v1545h1073v-126h-925v-557h866v-124h-866v-612h933v-126h-1081zM447 1693v221h143v-221h-143zM843 1693v221h141v-221h-141z" />
<glyph unicode="&#x402;" horiz-adv-x="1628" d="M-11 1417v128h1229v-128h-584v-698h6q53 108 158 165.5t233 57.5q149 0 263 -73.5t175.5 -203t61.5 -294.5q0 -135 -39 -251.5t-110.5 -203t-180 -136t-240.5 -49.5v128q420 28 420 514q0 97 -24 178.5t-69.5 141t-114.5 92.5t-154 33q-186 0 -285.5 -117t-99.5 -338 v-363h-147v1417h-498z" />
<glyph unicode="&#x403;" horiz-adv-x="1125" d="M154 0v1545h958v-128h-812v-1417h-146zM435 1653l214 305h167l-273 -305h-108z" />
<glyph unicode="&#x404;" horiz-adv-x="1527" d="M85 771q0 131 29.5 251t89.5 222t145 177.5t202 118.5t255 43q89 0 176 -22t164.5 -65t139 -102t101.5 -140t50 -173h-147q-36 173 -167.5 273t-321.5 100q-156 0 -279.5 -73t-197.5 -207t-90 -312h839v-124h-843q5 -146 47.5 -267t115.5 -204.5t176.5 -129.5t227.5 -46 q107 0 195 33t150.5 93t103.5 141t59 180h145q-37 -264 -214.5 -418.5t-442.5 -154.5q-159 0 -291 57.5t-224 161.5t-142.5 254.5t-50.5 332.5z" />
<glyph unicode="&#x405;" horiz-adv-x="1367" d="M85 497v13h141q0 -140 60.5 -236t168 -141.5t257.5 -45.5q201 0 315.5 85t114.5 234q0 39 -7 71t-25 59t-38 47.5t-57.5 40t-71 33.5t-91.5 30.5t-106.5 29t-126.5 30.5q-3 1 -9 2q-46 11 -70 17t-68 17.5t-68 21t-61.5 25t-58.5 31.5t-48.5 37.5t-43 47t-30.5 56.5 t-21 69t-6 81q0 196 144.5 310t393.5 114q165 0 287 -51.5t195 -159.5t80 -265h-143q-10 173 -123 262.5t-307 89.5q-120 0 -207 -34t-133 -99.5t-46 -156.5q0 -37 6.5 -68t24.5 -56t35 -43.5t51.5 -35t58.5 -27.5t73 -24t78 -20t89 -20q88 -19 141.5 -32t124 -35t112 -43.5 t87 -54.5t70 -72t40.5 -92t16 -118q0 -81 -23 -149.5t-64.5 -117t-96 -85.5t-120.5 -59t-135 -32.5t-142 -10.5q-288 0 -452.5 141.5t-164.5 388.5z" />
<glyph unicode="&#x406;" horiz-adv-x="481" d="M167 0v1545h148v-1545h-148z" />
<glyph unicode="&#x407;" horiz-adv-x="481" d="M-26 1693v221h142v-221h-142zM167 0v1545h148v-1545h-148zM367 1693v221h141v-221h-141z" />
<glyph unicode="&#x408;" horiz-adv-x="1085" d="M52 439q0 30 2 60h141v-45q0 -71 7 -123t26.5 -100.5t52.5 -78.5t87 -47.5t129 -17.5q54 0 96.5 10t72.5 27.5t52 44.5t35.5 56.5t21 69.5t10.5 77.5t3 85.5v1087h146v-1126q0 -219 -106.5 -336.5t-330.5 -117.5q-120 0 -206 31t-138 93t-76.5 148t-24.5 202z" />
<glyph unicode="&#x409;" horiz-adv-x="2170" d="M21 -2v122q20 -12 65 -19.5t81 -7.5q44 0 75 23.5t56 80t39 155.5t19 245l31 948h842v-650h418q213 0 337 -121t124 -327q0 -135 -55.5 -236.5t-160 -156t-245.5 -54.5h-566v1419h-555l-29 -909q-15 -543 -325 -543q-80 0 -151 31zM1229 126h386q108 0 186 39t118.5 111 t40.5 171.5t-40.5 171.5t-118.5 110.5t-186 38.5h-386v-642z" />
<glyph unicode="&#x40a;" horiz-adv-x="2170" d="M156 0v1545h148v-650h757v650h148v-650h440q213 0 337 -121t124 -327q0 -135 -55.5 -236.5t-160 -156t-245.5 -54.5h-588v768h-757v-768h-148zM1209 126h409q162 0 253 85.5t91 235.5t-91 235.5t-253 85.5h-409v-642z" />
<glyph unicode="&#x40b;" horiz-adv-x="1628" d="M-11 1419v126h1229v-126h-584v-570q64 34 170.5 63.5t172.5 29.5q93 0 167.5 -14t126 -37.5t89.5 -59t60 -72t35 -84t17.5 -88.5t4.5 -90v-497h-149v489q0 31 -2 57.5t-10 61.5t-22 62t-39.5 55t-60 47t-86 30.5t-116.5 11.5q-84 0 -187.5 -30t-170.5 -70v-714h-147v1419 h-498z" />
<glyph unicode="&#x40c;" horiz-adv-x="1406" d="M154 0v1545h146v-831q96 93 102 98l799 733h195l-697 -631l732 -914h-190l-646 814l-295 -269v-545h-146zM564 1653l215 305h168l-274 -305h-109z" />
<glyph unicode="&#x40e;" horiz-adv-x="1286" d="M-15 1545h158l506 -1031l501 1031h157l-617 -1276q-38 -78 -75.5 -133t-71.5 -88t-75 -51t-77.5 -24t-86.5 -6q-25 0 -47.5 3t-44 10t-35 12t-34.5 14v126q66 -39 174 -39q39 0 73.5 17.5t63 49.5t50 66.5t43.5 79.5l20 42zM352 1924h85q9 -83 68.5 -130.5t154.5 -47.5 q93 0 153.5 47t76.5 131h85q-25 -138 -104.5 -210.5t-212.5 -72.5q-134 0 -212 72.5t-94 210.5z" />
<glyph unicode="&#x40f;" horiz-adv-x="1527" d="M156 0v1545h148v-1419h920v1419h148v-1545h-534v-417h-148v417h-534z" />
<glyph unicode="&#x410;" horiz-adv-x="1367" d="M-19 0l624 1550h163l617 -1550h-163l-186 487h-708l-189 -487h-158zM373 605h617l-304 806z" />
<glyph unicode="&#x411;" horiz-adv-x="1447" d="M156 0v1545h1070v-126h-922v-524h584q106 0 192 -32t145 -89.5t91 -141t32 -185.5q0 -205 -123.5 -326t-336.5 -121h-732zM304 126h551q163 0 254.5 85.5t91.5 235.5t-91.5 235.5t-254.5 85.5h-551v-642z" />
<glyph unicode="&#x412;" horiz-adv-x="1447" d="M156 0v1545h662q79 0 148.5 -13t132 -43t107.5 -74t71 -109.5t26 -145.5q0 -125 -78 -220.5t-189 -121.5q67 -13 123.5 -39.5t103.5 -70.5t73.5 -111.5t26.5 -153.5q0 -88 -27 -161t-75 -124.5t-114 -87.5t-143 -53t-163 -17h-685zM300 126h462q51 0 93.5 3t90.5 11.5 t85.5 22.5t73 38.5t59 56.5t38 78.5t14.5 104.5q0 55 -15 100t-39.5 75.5t-61.5 54t-75.5 36.5t-87 21.5t-91 11t-92.5 2.5h-454v-616zM300 862h490q56 0 106 8t99 28t84 50.5t57 79.5t22 112q0 50 -12.5 91.5t-33.5 70t-52.5 50t-65 34t-76.5 20.5t-81.5 10.5t-84.5 2.5 h-452v-557z" />
<glyph unicode="&#x413;" horiz-adv-x="1125" d="M154 0v1545h958v-126h-812v-1419h-146z" />
<glyph unicode="&#x414;" horiz-adv-x="1527" d="M13 126h141q37 71 68.5 148t53.5 146.5t40 152.5t29 147.5t19 150.5t12 142t5.5 142.5t2 130.5t0.5 126v15.5v14v14.5v89h960v-1419h162v-543h-147v417h-1198v-417h-148v543zM311 126h885v1293h-664v-27v-10q0 -102 -0.5 -158.5t-4.5 -166.5t-12 -185t-24 -183t-39 -194 t-59 -184t-82 -185z" />
<glyph unicode="&#x415;" horiz-adv-x="1286" d="M156 0v1545h1073v-126h-925v-557h866v-124h-866v-612h933v-126h-1081z" />
<glyph unicode="&#x416;" horiz-adv-x="2148" d="M-17 0l696 881l-642 664h199l765 -811v811h147v-811l764 811h201l-644 -664l698 -881h-191l-611 773l-217 -226v-547h-147v547l-218 226l-609 -773h-191z" />
<glyph unicode="&#x417;" horiz-adv-x="1367" d="M87 497v13h141q0 -140 60.5 -236t168 -141.5t257.5 -45.5q96 0 175.5 29t132.5 79t82 116.5t29 140.5q0 66 -27.5 122.5t-74.5 95t-111.5 60.5t-138.5 22h-247v125h247q50 0 96 10.5t85 33t68 54t45.5 76t16.5 97.5q0 79 -29 139t-80 97t-118.5 56t-147.5 19 q-125 0 -220 -38.5t-153 -119t-64 -194.5h-143q5 117 50 208t121.5 149.5t178.5 88.5t225 30q89 0 167 -16t144.5 -49.5t114 -82t74.5 -118.5t27 -155q0 -116 -68.5 -206.5t-159.5 -122.5v-6q126 -34 197.5 -129t71.5 -244q0 -43 -8.5 -87.5t-29.5 -92.5t-51.5 -92 t-77.5 -83.5t-104.5 -68.5t-136 -46t-168.5 -17q-288 0 -452.5 141.5t-164.5 388.5z" />
<glyph unicode="&#x418;" horiz-adv-x="1527" d="M156 0v1545h148v-1386l877 1386h191v-1545h-148v1388l-876 -1388h-192z" />
<glyph unicode="&#x419;" horiz-adv-x="1527" d="M156 0v1545h148v-1386l877 1386h191v-1545h-148v1388l-876 -1388h-192zM454 1924h84q7 -55 35.5 -95t77 -61.5t111.5 -21.5q93 0 153.5 47t76.5 131h85q-25 -138 -105 -210.5t-212 -72.5q-134 0 -212 72.5t-94 210.5z" />
<glyph unicode="&#x41a;" horiz-adv-x="1406" d="M154 0v1545h146v-831l901 831h195l-697 -631l732 -914h-190l-646 814l-295 -269v-545h-146z" />
<glyph unicode="&#x41b;" horiz-adv-x="1447" d="M17 -2v122q20 -12 67.5 -19.5t85.5 -7.5q43 0 74 23.5t56 80t39.5 155.5t18.5 245l31 948h909v-1545h-148v1419h-622l-29 -909q-15 -543 -325 -543q-86 0 -157 31z" />
<glyph unicode="&#x41c;" horiz-adv-x="1807" d="M154 0v1545h200l449 -1102q18 -43 35 -90t39.5 -110.5t31.5 -90.5q13 34 47 134t55 153l443 1106h203v-1545h-141v934q0 224 17 485q-52 -156 -102 -279l-456 -1140h-132l-464 1127q-43 104 -101 284q18 -270 18 -473v-938h-142z" />
<glyph unicode="&#x41d;" horiz-adv-x="1527" d="M154 0v1545h148v-673h922v673h148v-1545h-148v747h-922v-747h-148z" />
<glyph unicode="&#x41e;" horiz-adv-x="1608" d="M76 773q0 179 53 329.5t147.5 256t230 165t296.5 59.5t296.5 -59.5t231 -166t149 -258t53.5 -331.5q0 -178 -53.5 -328.5t-148.5 -255t-231.5 -163t-298.5 -58.5q-161 0 -296 58.5t-229.5 164t-147 256.5t-52.5 331zM224 777q0 -154 41.5 -282t116.5 -217t183.5 -138 t237.5 -49q174 0 306 84.5t204 239t72 356.5t-72.5 357.5t-205.5 240.5t-306 85q-171 0 -302 -84.5t-203 -238.5t-72 -354z" />
<glyph unicode="&#x41f;" horiz-adv-x="1527" d="M154 0v1545h1218v-1545h-148v1419h-922v-1419h-148z" />
<glyph unicode="&#x420;" horiz-adv-x="1367" d="M163 0v1545h662q109 0 197.5 -27.5t153.5 -80.5t100 -136t35 -189q0 -148 -62 -250.5t-171 -152t-258 -49.5h-509v-660h-148zM311 783h468q83 0 150.5 18t121 54.5t83.5 99t30 145.5q0 82 -26.5 143.5t-75.5 99.5t-116 57t-151 19h-484v-636z" />
<glyph unicode="&#x421;" horiz-adv-x="1527" d="M85 771q0 131 29.5 251t89.5 222t145 177.5t202 118.5t255 43q89 0 176 -22t164.5 -65t139 -102t101.5 -140t50 -173h-147q-36 173 -167.5 273t-321.5 100q-170 0 -299.5 -85t-200.5 -240t-71 -358.5t70 -357.5t198.5 -238t298.5 -84q92 0 169.5 24.5t136.5 69t102.5 107 t69.5 138t36 163.5h145q-16 -190 -103 -332t-231.5 -219t-328.5 -77q-159 0 -291 57.5t-224 161.5t-142.5 254.5t-50.5 332.5z" />
<glyph unicode="&#x422;" d="M-13 1419v126h1233v-126h-543v-1419h-147v1419h-543z" />
<glyph unicode="&#x423;" horiz-adv-x="1286" d="M-15 1545h158l506 -1031l501 1031h157l-617 -1276q-38 -78 -75.5 -133t-71.5 -88t-75 -51t-77.5 -24t-86.5 -6q-25 0 -47.5 3t-44 10t-35 12t-34.5 14v126q66 -39 174 -39q39 0 73.5 17.5t63 49.5t50 66.5t43.5 79.5l20 42z" />
<glyph unicode="&#x424;" horiz-adv-x="1628" d="M65 785q0 82 18.5 155.5t52.5 132.5t81.5 108t106 85t126 61t140.5 37t150 12v169h148v-169q109 0 208 -23.5t184.5 -72.5t148.5 -118t99 -166t36 -211q0 -117 -36.5 -216.5t-100 -169t-149.5 -118t-184.5 -71.5t-205.5 -23v-187h-148v187q-107 0 -205.5 23t-184.5 71.5 t-149 118t-99.5 169t-36.5 216.5zM211 785q0 -67 14 -125t39 -104.5t62 -84.5t81.5 -65.5t98 -47.5t111.5 -31.5t123 -15.5v940q-77 -4 -144 -17.5t-127 -38t-107 -62.5t-81 -87.5t-52 -115.5t-18 -145zM888 311q91 6 169 26t145 58t114.5 91.5t74 129.5t26.5 169 q0 95 -26 170.5t-72.5 128.5t-113.5 89t-145.5 54.5t-171.5 23.5v-940z" />
<glyph unicode="&#x425;" horiz-adv-x="1245" d="M-31 0l563 795l-528 750h174l346 -495q19 -27 50 -79.5t45 -73.5q47 67 100 156l354 492h162l-527 -750l558 -795h-178l-386 553q-45 65 -58 89.5t-25 43.5q-6 -6 -14 -16.5t-15.5 -21.5t-16 -24.5t-15.5 -25t-15 -23.5t-13 -20l-391 -555h-170z" />
<glyph unicode="&#x426;" horiz-adv-x="1566" d="M156 0v1545h148v-1419h920v1419h148v-1419h163v-543h-147v417h-1232z" />
<glyph unicode="&#x427;" horiz-adv-x="1388" d="M110 1118v427h149v-418q0 -32 2 -58.5t10 -61t22 -62t39.5 -55.5t60 -46.5t86 -30.5t116.5 -12q123 0 264 21t226 42v681h148v-1545h-148v738q-78 -20 -229.5 -42.5t-245.5 -22.5q-93 0 -167.5 14t-126 37.5t-89.5 59t-60 72.5t-35 84t-17.5 88t-4.5 90z" />
<glyph unicode="&#x428;" horiz-adv-x="2266" d="M156 0v1545h148v-1419h755v1419h148v-1419h755v1419h148v-1545h-1954z" />
<glyph unicode="&#x429;" horiz-adv-x="2304" d="M156 0v1545h148v-1419h755v1419h148v-1419h755v1419h148v-1419h163v-543h-148v417h-1969z" />
<glyph unicode="&#x42a;" horiz-adv-x="1703" d="M-11 1419v126h651v-650h541q105 0 191 -32t145.5 -89.5t91.5 -141t32 -185.5q0 -205 -124 -326t-336 -121h-688v1419h-504zM640 126h508q162 0 254 85.5t92 235.5t-92 235.5t-254 85.5h-508v-642z" />
<glyph unicode="&#x42b;" horiz-adv-x="1825" d="M156 0v1545h148v-650h541q105 0 191 -32t145.5 -89.5t91.5 -141t32 -185.5q0 -205 -124 -326t-336 -121h-689zM304 126h508q162 0 254 85.5t92 235.5t-92 235.5t-254 85.5h-508v-642zM1522 0v1545h148v-1545h-148z" />
<glyph unicode="&#x42c;" horiz-adv-x="1367" d="M156 0v1545h148v-650h541q105 0 191 -32t145.5 -89.5t91.5 -141t32 -185.5q0 -205 -124 -326t-336 -121h-689zM304 126h508q162 0 254 85.5t92 235.5t-92 235.5t-254 85.5h-508v-642z" />
<glyph unicode="&#x42d;" horiz-adv-x="1527" d="M78 538h146q14 -79 42.5 -146.5t73 -123t101.5 -95t131 -61t159 -21.5q166 0 292.5 79.5t197.5 226t77 341.5h-820v124h816q-15 178 -89 312t-197.5 207t-280.5 73q-189 0 -321 -100t-168 -273h-147q10 92 50.5 173t101.5 140t138.5 102t164.5 65t177 22q115 0 216 -30 t179.5 -84t140.5 -129t102.5 -165.5t61.5 -192.5t21 -211q0 -182 -51 -332.5t-143 -254.5t-224 -161.5t-290 -57.5q-266 0 -443 154.5t-215 418.5z" />
<glyph unicode="&#x42e;" horiz-adv-x="2170" d="M152 0v1545h148v-673h342q14 159 72.5 291t151.5 224.5t221.5 144t277.5 51.5q161 0 296.5 -59.5t231 -166t149 -258t53.5 -331.5q0 -178 -53.5 -328.5t-148.5 -255t-231.5 -163t-298.5 -58.5q-157 0 -290.5 57t-227.5 159t-148.5 248t-58.5 320h-338v-747h-148zM785 777 q0 -205 72 -361t203.5 -240.5t304.5 -84.5t305.5 84.5t204.5 239t72 356.5t-72.5 357.5t-205.5 240.5t-306 85q-171 0 -302.5 -84.5t-203.5 -238.5t-72 -354z" />
<glyph unicode="&#x42f;" horiz-adv-x="1367" d="M8 0l533 686q-207 6 -327.5 120t-120.5 312q0 203 126.5 315t342.5 112h650v-1545h-148v686h-333l-532 -686h-191zM241 1118q0 -147 94 -226.5t260 -79.5h469v607h-469q-167 0 -260.5 -77t-93.5 -224z" />
<glyph unicode="&#x430;" horiz-adv-x="1125" d="M70 282q0 153 103.5 238.5t310.5 107.5q22 2 61.5 5.5t57 5t47 5t44 6t35.5 6t33 8t25 10t23 12.5q11 7 18 16.5t12 23t7 29.5t2 38q0 54 -13.5 95.5t-37.5 69t-61 44.5t-80.5 24.5t-98.5 7.5q-142 0 -216.5 -64.5t-87.5 -198.5h-130q5 118 59.5 202.5t153.5 128.5 t236 44q193 0 302 -83t109 -238v-608v-7v-30.5t2 -24.5t6.5 -22t12.5 -15t21 -11t31 -3q28 0 53 6v-104q-50 -17 -109 -17q-28 0 -50 6.5t-37 16.5t-26 26t-17 32t-9.5 38t-5 41t-1.5 44q-140 -224 -420 -224q-171 0 -268 83.5t-97 229.5zM213 296q0 -98 69.5 -155.5 t186.5 -57.5q76 0 145 23.5t121.5 67t83 108.5t30.5 143v182q-14 -16 -38 -27t-65.5 -20t-72.5 -13.5t-95 -12.5q-22 -3 -33 -4q-32 -4 -55 -8t-56 -11t-56.5 -15.5t-51 -21t-46 -29.5t-35 -38.5t-24.5 -49.5t-8 -61z" />
<glyph unicode="&#x431;" d="M93 642q0 187 32.5 359.5t106.5 288.5q73 113 179.5 165.5t270.5 62.5l103 6q84 5 116 17.5t46 41.5h151q-18 -96 -84 -133.5t-217 -47.5l-165 -10q-188 -13 -289.5 -138t-137.5 -384h6q56 114 168 183.5t246 69.5q112 0 205.5 -40.5t160 -113.5t103.5 -181t37 -239 q0 -173 -64.5 -305.5t-182.5 -204.5t-271 -72q-86 0 -158 19.5t-125 54t-94 84t-67.5 107t-44 126.5t-24.5 138t-7 146zM230 549q0 -102 29 -189t79.5 -148t121.5 -95t153 -34q109 0 196 58.5t136 165t49 242.5q0 202 -106 330t-269 128q-174 0 -281.5 -125t-107.5 -333z " />
<glyph unicode="&#x432;" horiz-adv-x="1125" d="M128 0v1116h523q172 0 265 -68.5t93 -196.5q0 -98 -50 -164t-143 -92v-5q113 -20 175 -89.5t62 -187.5q0 -151 -104 -232t-298 -81h-523zM265 116h371q142 0 211 52.5t69 159.5q0 97 -71 149.5t-209 52.5h-371v-414zM265 636h371q114 0 175 47.5t61 132.5q0 185 -236 185 h-371v-365z" />
<glyph unicode="&#x433;" horiz-adv-x="868" d="M141 0v1116h740v-115h-603v-1001h-137z" />
<glyph unicode="&#x434;" d="M13 116h132q81 148 118 354.5t37 502.5v143h729v-1000h156v-472h-137v356h-899v-356h-136v472zM286 116h607v885h-461v-75q0 -265 -40 -472.5t-106 -337.5z" />
<glyph unicode="&#x435;" horiz-adv-x="1125" d="M70 545q0 131 37.5 243t104.5 190.5t162 123t206 44.5q96 0 177 -31t138.5 -85t97 -128t59 -159t19.5 -179v-38h-862q0 -72 13 -137t42.5 -123t72.5 -100.5t107 -67t142 -24.5q134 0 221 74.5t119 218.5h133q-37 -189 -160 -296.5t-317 -107.5q-154 0 -270 71.5t-179 203 t-63 307.5zM209 636h725q-11 185 -106.5 291.5t-251.5 106.5q-71 0 -129 -22t-98 -58t-69.5 -88t-46 -108t-24.5 -122z" />
<glyph unicode="&#x436;" horiz-adv-x="1608" d="M-11 0l484 651l-436 465h185l514 -569v569h136v-567l516 567h184l-437 -465l485 -651h-168l-412 560l-168 -173v-387h-136v387l-167 173l-413 -560h-167z" />
<glyph unicode="&#x437;" horiz-adv-x="1052" d="M60 350h137q17 -129 94.5 -198t234.5 -69q71 0 126 14.5t87.5 38t53.5 56.5t28.5 65.5t7.5 70.5q0 90 -58.5 146t-180.5 56h-186v104h154q102 0 169.5 54.5t67.5 149.5q0 28 -6 52.5t-24 52t-47.5 46.5t-80.5 32t-119 13q-60 0 -108.5 -12t-82 -33t-57.5 -51.5t-36.5 -66 t-16.5 -78.5h-134q6 80 32.5 142t66.5 101.5t95.5 65t115 36t129.5 10.5t131 -10t113.5 -33t90 -57.5t58.5 -85.5t21 -115q0 -93 -54 -163t-126 -85v-4q42 -8 78 -25.5t68.5 -47.5t51.5 -79t19 -111q0 -88 -36.5 -159t-99.5 -115t-143 -67.5t-170 -23.5q-215 0 -333.5 102 t-130.5 281z" />
<glyph unicode="&#x438;" horiz-adv-x="1164" d="M128 0v1116h137v-955l603 955h170v-1116h-137v955l-603 -955h-170z" />
<glyph unicode="&#x439;" horiz-adv-x="1164" d="M128 0v1116h137v-955l603 955h170v-1116h-137v955l-603 -955h-170zM273 1550h85q10 -83 69 -130.5t155 -47.5q93 0 153.5 46.5t76.5 131.5h85q-17 -92 -57.5 -154.5t-106 -95t-153.5 -32.5q-135 0 -213 72t-94 210z" />
<glyph unicode="&#x43a;" horiz-adv-x="1085" d="M130 0v1116h137v-571l621 571h183l-476 -434l503 -682h-172l-431 588l-228 -211v-377h-137z" />
<glyph unicode="&#x43b;" horiz-adv-x="1164" d="M19 0v110q40 -19 122 -19q71 0 110 84.5t45 271.5l21 669h725v-1116h-137v1001h-456l-19 -560q-7 -244 -80 -354.5t-211 -110.5q-57 0 -120 24z" />
<glyph unicode="&#x43c;" horiz-adv-x="1447" d="M128 0v1116h183l416 -962l413 962h182v-1116h-137v918h-6l-394 -918h-120l-394 918h-6v-918h-137z" />
<glyph unicode="&#x43d;" horiz-adv-x="1164" d="M128 0v1116h137v-476h636v476h137v-1116h-137v526h-636v-526h-137z" />
<glyph unicode="&#x43e;" d="M74 558q0 177 65 311t185.5 206.5t280.5 72.5q241 0 383.5 -160.5t142.5 -434.5q0 -270 -141.5 -428t-384.5 -158q-244 0 -387.5 160t-143.5 431zM213 558q0 -221 105.5 -349t288.5 -128q178 0 282.5 128.5t104.5 345.5q0 218 -106 348.5t-285 130.5q-117 0 -205.5 -59 t-136.5 -167t-48 -250z" />
<glyph unicode="&#x43f;" horiz-adv-x="1164" d="M128 0v1116h910v-1116h-137v1001h-636v-1001h-137z" />
<glyph unicode="&#x440;" horiz-adv-x="1245" d="M137 -417v1533h124v-215q120 247 399 247q151 0 265.5 -73.5t176.5 -208.5t62 -313q0 -175 -62 -308.5t-175.5 -206.5t-261.5 -73q-137 0 -238 61t-158 181v-624h-132zM265 555q0 -219 103 -346.5t279 -127.5q171 0 274.5 129t103.5 343q0 220 -103.5 351.5t-279.5 131.5 t-276.5 -128t-100.5 -353z" />
<glyph unicode="&#x441;" horiz-adv-x="1125" d="M78 547q0 181 64.5 317t182.5 210t274 74q193 0 314 -101.5t144 -282.5h-139q-26 132 -107 202t-210 70q-175 0 -278.5 -130t-103.5 -348q0 -219 100 -348t269 -129q140 0 230 84t112 235h136q-28 -197 -151.5 -315t-319.5 -118q-155 0 -272 71.5t-181 203t-64 305.5z " />
<glyph unicode="&#x442;" horiz-adv-x="963" d="M0 1001v115h966v-115h-415v-1001h-137v1001h-414z" />
<glyph unicode="&#x443;" horiz-adv-x="1004" d="M-2 1116h149l302 -768q15 -37 22 -56.5t10 -30t12.5 -41t22.5 -71.5q58 187 68 214l276 753h139l-439 -1157q-19 -51 -31.5 -82.5t-29 -70.5t-29 -62.5t-29 -51t-32 -42.5t-35.5 -31.5t-41.5 -24t-47 -12.5t-55.5 -5q-54 0 -120 11v119q65 -15 99 -15q20 0 37.5 4.5 t31.5 10.5t28.5 19.5t24.5 24t22 32.5t19.5 36t19 43t18 46l19.5 51q12 33 18 49z" />
<glyph unicode="&#x444;" horiz-adv-x="1736" d="M83 555q0 290 114.5 443.5t320.5 153.5q91 0 164 -39.5t115 -111.5h4v544h137v-544h4q43 72 115 111.5t163 39.5q206 0 321.5 -153.5t115.5 -443.5q0 -136 -35 -249t-95 -186t-138 -113t-167 -40t-165 42t-115 109h-4v-535l-137 3v532q0 -2 -4 0q-38 -67 -114.5 -109 t-166.5 -42q-70 0 -134.5 25t-119 74.5t-94.5 119.5t-62.5 164.5t-22.5 204.5zM219 555q0 -239 89.5 -355.5t242.5 -116.5q70 0 127 30t90 85.5t33 126.5v474q0 68 -33 123t-89.5 85.5t-125.5 30.5q-56 0 -105 -17t-91.5 -55t-72.5 -93.5t-47.5 -136.5t-17.5 -181zM938 325 q0 -107 71 -174.5t178 -67.5q75 0 135 27.5t104.5 83.5t69 148t24.5 213q0 125 -26 219.5t-72.5 151t-106 84.5t-130.5 28q-105 0 -176 -67.5t-71 -171.5v-474z" />
<glyph unicode="&#x445;" horiz-adv-x="1044" d="M2 0l433 586l-400 530h174l240 -326q11 -14 23 -33l24 -38t22 -33q14 21 24.5 36.5t14 21t11.5 16t22 30.5l248 326h161l-396 -521l441 -595h-174l-297 408q-7 12 -24.5 37t-32.5 48q-9 -15 -56 -83l-295 -410h-163z" />
<glyph unicode="&#x446;" d="M122 0v1116h137v-1000h636v1000h136v-1000h154v-472h-137v356h-926z" />
<glyph unicode="&#x447;" horiz-adv-x="1085" d="M91 825v291h137v-306q0 -45 8.5 -80.5t20.5 -58.5t33.5 -39.5t40 -24.5t47 -12.5t47 -5.5t48.5 -1q56 0 125 10t128.5 25t100.5 32v461h137v-1116h-137v532q-70 -26 -178.5 -47t-203.5 -21q-175 0 -264.5 85.5t-89.5 275.5z" />
<glyph unicode="&#x448;" horiz-adv-x="1711" d="M128 0v1116h137v-1000h523v1000h136v-1000h524v1000h137v-1116h-1457z" />
<glyph unicode="&#x449;" horiz-adv-x="1753" d="M122 0v1116h137v-1000h522v1000h137v-1000h524v1000h136v-1000h154v-472h-137v356h-1473z" />
<glyph unicode="&#x44a;" horiz-adv-x="1326" d="M0 1001v115h504v-439h422q163 0 258.5 -91t95.5 -248t-95 -247.5t-259 -90.5h-559v1001h-367zM504 116h391q118 0 183.5 57t65.5 165q0 71 -30 121.5t-86 76.5t-133 26h-391v-446z" />
<glyph unicode="&#x44b;" horiz-adv-x="1447" d="M124 0v1116h137v-439h362q163 0 258.5 -91t95.5 -248t-95 -247.5t-259 -90.5h-499zM261 116h329q119 0 185 57t66 165q0 107 -66.5 165.5t-184.5 58.5h-329v-446zM1187 0v1116h137v-1116h-137z" />
<glyph unicode="&#x44c;" horiz-adv-x="1085" d="M128 0v1116h137v-439h423q162 0 258 -91t96 -248t-95 -247.5t-259 -90.5h-560zM265 116h390q118 0 184 57t66 165q0 107 -66 165.5t-184 58.5h-390v-446z" />
<glyph unicode="&#x44d;" horiz-adv-x="1125" d="M67 360h138q29 -133 116 -206t217 -73q160 0 259 116t108 315h-512v116h512q-16 189 -117 298.5t-262 109.5q-82 0 -144.5 -28.5t-104.5 -83.5t-62 -134h-141q30 170 148.5 264t305.5 94q156 0 274 -74t182 -210t64 -317q0 -174 -63.5 -305.5t-180.5 -203t-272 -71.5 q-187 0 -307.5 106.5t-157.5 286.5z" />
<glyph unicode="&#x44e;" horiz-adv-x="1649" d="M128 0v1116h137v-476h257q23 234 163.5 371t362.5 137q241 0 383.5 -160.5t142.5 -434.5q0 -270 -141.5 -428t-384.5 -158q-235 0 -378.5 151t-153.5 408h-251v-526h-137zM655 558q0 -220 106 -348.5t289 -128.5q178 0 282.5 128.5t104.5 345.5q0 218 -106 348.5 t-285 130.5q-177 0 -284 -130t-107 -346z" />
<glyph unicode="&#x44f;" horiz-adv-x="1125" d="M6 0l415 473q-151 9 -241.5 94.5t-90.5 227.5q0 147 91.5 234t246.5 87h565v-1116h-137v469h-277l-394 -469h-178zM226 793q0 -98 61.5 -153.5t172.5 -55.5h395v417h-395q-111 0 -172.5 -55.5t-61.5 -152.5z" />
<glyph unicode="&#x451;" horiz-adv-x="1125" d="M70 545q0 131 37.5 243t104.5 190.5t162 123t206 44.5q96 0 177 -31t138.5 -85t97 -128t59 -159t19.5 -179v-38h-862q0 -72 13 -137t42.5 -123t72.5 -100.5t107 -67t142 -24.5q134 0 221 74.5t119 218.5h133q-37 -189 -160 -296.5t-317 -107.5q-154 0 -270 71.5t-179 203 t-63 307.5zM209 636h725q-11 185 -106.5 291.5t-251.5 106.5q-71 0 -129 -22t-98 -58t-69.5 -88t-46 -108t-24.5 -122zM296 1328v217h143v-217h-143zM690 1328v217h141v-217h-141z" />
<glyph unicode="&#x452;" horiz-adv-x="1164" d="M15 1001v115h113v429h137v-429h506v-115h-506v-388h4q51 114 148 169.5t230 55.5q197 0 294 -107t97 -325v-205q0 -121 -40 -231t-112 -193.5t-179 -135t-234 -55.5v128q99 5 180.5 47t135.5 110.5t83 158.5t29 192v162q0 85 -17 148.5t-52 106t-87.5 63.5t-123.5 21 q-158 0 -257 -107t-99 -278v-338h-137v1001h-113z" />
<glyph unicode="&#x453;" horiz-adv-x="868" d="M128 0v1116h732v-115h-595v-1001h-137zM330 1287l217 306h167l-273 -306h-111z" />
<glyph unicode="&#x454;" horiz-adv-x="1125" d="M78 547q0 181 64.5 317t182.5 210t274 74q187 0 305.5 -94t148.5 -264h-141q-30 119 -109.5 182.5t-201.5 63.5q-161 0 -262.5 -109.5t-116.5 -298.5h522v-116h-522q9 -199 108 -315t258 -116q131 0 218 73t116 206h137q-37 -181 -157 -287t-307 -106q-155 0 -272 71.5 t-181 203t-64 305.5z" />
<glyph unicode="&#x455;" horiz-adv-x="1044" d="M70 365h131q0 -139 87 -213t244 -74q137 0 220 60t83 158q0 23 -6 44.5t-15 38t-26 31.5t-31.5 25.5t-38 21t-39.5 17t-43 14t-41.5 11t-41.5 10.5q-16 3 -23 5q-18 4 -55 13q-44 9 -67 15t-64 17.5t-64.5 22.5t-56.5 28t-51.5 38t-37 47.5t-26.5 61t-8 74.5 q0 146 109.5 230.5t300.5 84.5q124 0 218 -38.5t149 -120t55 -197.5h-133q-18 244 -302 244q-120 0 -190.5 -50t-70.5 -135q0 -34 7.5 -60t30 -46t42 -33t65 -27t76.5 -22t98 -23q51 -11 81.5 -19t79.5 -23.5t80 -31.5t67.5 -41.5t57 -54.5t35 -70t14.5 -90 q0 -153 -122 -248t-320 -95q-215 0 -334 103.5t-124 296.5z" />
<glyph unicode="&#x456;" horiz-adv-x="400" d="M132 0v1116h137v-1116h-137zM132 1328v224h137v-224h-137z" />
<glyph unicode="&#x457;" horiz-adv-x="400" d="M-67 1328v222h143v-222h-143zM132 0v1116h137v-1116h-137zM328 1328v222h141v-222h-141z" />
<glyph unicode="&#x458;" horiz-adv-x="400" d="M-60 -308q24 -3 52 -3q19 0 31 0.5t27.5 3t24.5 6.5t20 12t17 19.5t12.5 28t9.5 38.5t5 51t2 65v1203h135v-1190q0 -40 -1 -68.5t-4 -62t-9 -56.5t-15.5 -48t-24 -41.5t-34.5 -32.5t-46 -24.5t-60 -14t-76 -5.5q-20 0 -66 6v113zM141 1330v224h135v-224h-135z" />
<glyph unicode="&#x459;" horiz-adv-x="1688" d="M19 0v110q40 -19 122 -19q71 0 110 84.5t45 271.5l21 669h651v-439h302q162 0 258 -91t96 -248t-95 -247.5t-259 -90.5h-439v1001h-382l-19 -560q-7 -244 -80 -354.5t-211 -110.5q-57 0 -120 24zM968 116h269q118 0 184 57t66 165q0 107 -66 165.5t-184 58.5h-269v-446z " />
<glyph unicode="&#x45a;" horiz-adv-x="1688" d="M128 0v1116h137v-439h549v439h137v-439h315q107 0 187 -40.5t123.5 -117.5t43.5 -181q0 -157 -95.5 -247.5t-258.5 -90.5h-452v562h-549v-562h-137zM951 116h282q118 0 184 57t66 165q0 107 -66.5 165.5t-183.5 58.5h-282v-446z" />
<glyph unicode="&#x45b;" horiz-adv-x="1164" d="M15 1001v115h113v429h137v-429h506v-115h-506v-388h4q51 114 148 169.5t230 55.5q197 0 294 -107t97 -325v-406h-137v384q0 85 -17 148.5t-52 106t-87.5 63.5t-123.5 21q-158 0 -257 -107t-99 -278v-338h-137v1001h-113z" />
<glyph unicode="&#x45c;" horiz-adv-x="1085" d="M130 0v1116h137v-571l621 571h183l-476 -434l507 -682h-170l-437 588l-228 -211v-377h-137zM439 1287l216 306h168l-274 -306h-110z" />
<glyph unicode="&#x45e;" horiz-adv-x="1004" d="M-2 1116h149l302 -768q15 -37 22 -56.5t10 -30t12.5 -41t22.5 -71.5q58 187 68 214l276 753h139l-439 -1157q-19 -51 -31.5 -82.5t-29 -70.5t-29 -62.5t-29 -51t-32 -42.5t-35.5 -31.5t-41.5 -24t-47 -12.5t-55.5 -5q-54 0 -120 11v119q65 -15 99 -15q20 0 37.5 4.5 t31.5 10.5t28.5 19.5t24.5 24t22 32.5t19.5 36t19 43t18 46l19.5 51q12 33 18 49zM209 1550h84q9 -83 68 -130.5t155 -47.5q93 0 154 47t77 131h84q-25 -138 -104.5 -210t-212.5 -72q-89 0 -154 32.5t-103 95t-48 154.5z" />
<glyph unicode="&#x45f;" horiz-adv-x="1164" d="M128 0v1116h137v-1000h636v1000h137v-1116h-387v-356h-137v356h-386z" />
<glyph unicode="&#x490;" horiz-adv-x="1125" d="M156 0v1545h808v355h148v-481h-808v-1419h-148z" />
<glyph unicode="&#x491;" horiz-adv-x="868" d="M128 0v1116h589v340h136v-455h-588v-1001h-137z" />
<glyph unicode="&#x2000;" horiz-adv-x="979" />
<glyph unicode="&#x2001;" horiz-adv-x="1958" />
<glyph unicode="&#x2002;" horiz-adv-x="979" />
<glyph unicode="&#x2003;" horiz-adv-x="1958" />
<glyph unicode="&#x2004;" horiz-adv-x="652" />
<glyph unicode="&#x2005;" horiz-adv-x="489" />
<glyph unicode="&#x2006;" horiz-adv-x="326" />
<glyph unicode="&#x2007;" horiz-adv-x="326" />
<glyph unicode="&#x2008;" horiz-adv-x="244" />
<glyph unicode="&#x2009;" horiz-adv-x="391" />
<glyph unicode="&#x200a;" horiz-adv-x="108" />
<glyph unicode="&#x2010;" horiz-adv-x="802" d="M130 530v132h545v-132h-545z" />
<glyph unicode="&#x2011;" horiz-adv-x="802" d="M130 530v132h545v-132h-545z" />
<glyph unicode="&#x2012;" horiz-adv-x="802" d="M130 530v132h545v-132h-545z" />
<glyph unicode="&#x2013;" horiz-adv-x="1085" d="M0 530v132h1085v-132h-1085z" />
<glyph unicode="&#x2014;" horiz-adv-x="2170" d="M0 530v132h2171v-132h-2171z" />
<glyph unicode="&#x2018;" horiz-adv-x="603" d="M209 1053v239q0 95 52 177t139 109v-93q-55 -32 -76.5 -83t-21.5 -124h85v-225h-178z" />
<glyph unicode="&#x2019;" horiz-adv-x="603" d="M201 1021v93q56 32 77.5 83t21.5 123h-85v225h178v-238q0 -62 -22.5 -120t-67 -103t-102.5 -63z" />
<glyph unicode="&#x201a;" horiz-adv-x="603" d="M201 -209q56 35 77.5 86t21.5 123h-85v226h178v-239q0 -95 -52 -177.5t-140 -109.5v91z" />
<glyph unicode="&#x201c;" horiz-adv-x="802" d="M149 1057v187q0 131 45 212t138 120v-91q-52 -31 -74 -79t-22 -130h83v-219h-170zM482 1057v187q0 131 45 212t138 120v-91q-52 -31 -74 -79t-22 -130h82v-219h-169z" />
<glyph unicode="&#x201d;" horiz-adv-x="802" d="M135 1027v91q52 31 73.5 78.5t21.5 129.5h-83v219h170v-186q0 -130 -44.5 -211.5t-137.5 -120.5zM466 1027v91q53 31 74.5 78.5t21.5 129.5h-82v219h169v-186q0 -130 -45 -211.5t-138 -120.5z" />
<glyph unicode="&#x201e;" horiz-adv-x="802" d="M135 -209q52 31 73.5 79t21.5 130h-83v219h170v-186q0 -131 -44.5 -212.5t-137.5 -120.5v91zM466 -209q52 31 74 79t22 130h-82v219h169v-186q0 -131 -45 -212.5t-138 -120.5v91z" />
<glyph unicode="&#x2020;" d="M104 951v117h432v477h129v-477h437v-117h-437v-1279h-129v1279h-432z" />
<glyph unicode="&#x2021;" d="M104 102v117h432v780h-432v117h432v429h129v-429h437v-117h-437v-780h437v-117h-437v-425h-129v425h-432z" />
<glyph unicode="&#x2022;" horiz-adv-x="1085" d="M156 773q0 105 52 194t141 141t193.5 52t194 -52t141.5 -141t52 -194t-52 -194t-141 -140.5t-194 -51.5t-194 51.5t-141 140.5t-52 194z" />
<glyph unicode="&#x2026;" horiz-adv-x="2170" d="M286 0v217h153v-217h-153zM1009 0v217h153v-217h-153zM1732 0v217h153v-217h-153z" />
<glyph unicode="&#x202f;" horiz-adv-x="391" />
<glyph unicode="&#x2030;" horiz-adv-x="2411" d="M135 1168.5q0 175.5 85 272t240 96.5t239 -95t84 -270q0 -115 -38.5 -198.5t-112.5 -128t-176 -44.5q-154 0 -237.5 96t-83.5 271.5zM247 -72l1027 1652h102l-1022 -1652h-107zM252 1162q0 -132 52.5 -200.5t153.5 -68.5t155 71t54 204.5t-54 205.5t-153 72 q-66 0 -112.5 -33t-71 -97t-24.5 -154zM866 341q0 178 83.5 273.5t239.5 95.5q155 0 239.5 -93t84.5 -263q0 -182 -83 -280t-236 -98q-162 0 -245 93t-83 272zM984 334q0 -132 52.5 -199.5t154.5 -67.5q100 0 152.5 72t52.5 209q0 132 -53.5 202.5t-153.5 70.5 q-102 0 -153.5 -72.5t-51.5 -214.5zM1632 338q0 179 84.5 276.5t241.5 97.5q159 0 241 -98t82 -262q0 -178 -85 -277t-238 -99q-105 0 -178 41.5t-110.5 122.5t-37.5 198zM1748 341q0 -132 54.5 -203t155.5 -71q66 0 111.5 32t69 95t23.5 154q0 133 -52.5 203t-151.5 70 q-101 0 -155.5 -72.5t-54.5 -207.5z" />
<glyph unicode="&#x2039;" horiz-adv-x="561" d="M116 510v134l288 272v-145l-203 -193l203 -194v-146z" />
<glyph unicode="&#x203a;" horiz-adv-x="561" d="M161 241v146l202 193l-202 193v145l286 -271v-137z" />
<glyph unicode="&#x205f;" horiz-adv-x="489" />
<glyph unicode="&#x20ac;" d="M33 619l41 98h96q-3 10 -3 43q0 15 5 85h-139l39 97h110q51 270 200 425q163 178 424 178q268 0 403 -167l-59 -127q-141 170 -347 170q-199 0 -325 -145q-111 -127 -150 -334h722l-39 -97h-696q-7 -56 -7 -93q0 -25 3 -35h659l-40 -98h-613q29 -227 137 -367 q131 -163 343 -163q116 0 208 50q77 44 169 137v-168q-166 -141 -381 -141q-272 0 -439 194q-146 173 -178 458h-143z" />
<glyph unicode="&#x2122;" horiz-adv-x="2148" d="M259 1465v80h631v-80h-271v-692h-89v692h-271zM1034 773v772h134l245 -640l246 640h130v-772h-80v683l-261 -683h-76l-258 683v-683h-80z" />
<glyph unicode="&#x221a;" horiz-adv-x="1301" d="M24 325l191 96l361 -753l420 2039h106l-455 -2171h-119l-365 750l-98 -48z" />
<glyph unicode="&#x221e;" horiz-adv-x="1566" d="M87 534q0 87 36 157t101.5 110t146.5 40q29 0 60 -7.5t55 -16t58 -29t51.5 -31.5t53.5 -40t46.5 -38t48 -42.5t41.5 -37.5q13 12 48.5 45.5t53 49t51 44t58.5 43t58 31t66 24t67 7.5q129 0 211.5 -85t82.5 -217q0 -134 -80 -218.5t-207 -84.5q-94 0 -183 50t-226 178 q-21 -17 -52.5 -43.5t-54 -45.5t-52.5 -42t-57 -38.5t-58.5 -29.5t-66 -21.5t-71.5 -7.5q-126 0 -206 83t-80 213zM191 536q0 -88 51 -140.5t135 -52.5q76 0 168.5 58.5t166.5 132.5q-2 2 -29.5 25.5t-35 30t-35 28.5t-40.5 30.5t-38.5 26t-43 25.5t-40 18t-42.5 14t-39 4 q-77 0 -127.5 -56.5t-50.5 -143.5zM858 534q43 -40 74 -66t78 -58.5t94.5 -49.5t93.5 -17q79 0 128.5 53.5t49.5 137.5q0 62 -22.5 108t-64.5 71t-98 25q-22 0 -46.5 -6.5t-44 -14t-46.5 -24.5t-42.5 -27.5t-44 -34t-38.5 -32.5t-38.5 -35t-32.5 -30z" />
<glyph unicode="&#x2248;" horiz-adv-x="1301" d="M76 219q9 48 20.5 86t32 76.5t47.5 64t68.5 42t93.5 16.5q19 0 41 -3t40.5 -6t46.5 -10.5t43 -11.5t46.5 -14.5t41.5 -14t42.5 -15t35.5 -12.5q12 -5 49.5 -19t59 -21t54 -17t60.5 -14.5t53 -4.5q74 0 119 50.5t61 126.5h78q-4 -55 -22 -104t-48.5 -89t-78 -63.5 t-107.5 -23.5q-42 0 -102.5 14t-91.5 24.5t-101 34.5q-20 6 -74 25.5t-88.5 31t-80 22t-77.5 10.5q-68 0 -117 -50.5t-60 -130.5h-85zM76 569q9 48 20.5 86t32 76.5t47.5 64t68.5 41.5t93.5 16q19 0 41 -2.5t40.5 -5.5t46.5 -10.5t43 -12t46.5 -14.5t41.5 -13.5t42.5 -15 t35.5 -13.5q8 -2 61.5 -22t77.5 -27.5t65 -17t72 -9.5q74 0 119 51t61 127h78q-4 -56 -22 -104.5t-48.5 -88.5t-78 -63.5t-107.5 -23.5q-42 0 -102.5 14t-91.5 24t-101 34q-20 7 -74 26.5t-88.5 31t-80 21.5t-77.5 10q-45 0 -82.5 -22.5t-62.5 -63.5t-32 -94h-85z" />
<glyph unicode="&#x2260;" horiz-adv-x="1301" d="M110 298v104h396l154 292h-550v105h609l167 315l91 -48l-144 -267h356v-105h-412l-156 -292h568v-104h-625l-162 -306l-91 49l138 257h-339z" />
<glyph unicode="&#x2264;" horiz-adv-x="1301" d="M112 50h1079v-104h-1079v104zM112 564v118l1079 418v-116l-934 -361l934 -360v-116z" />
<glyph unicode="&#x2265;" horiz-adv-x="1301" d="M110 50h1079v-104h-1079v104zM110 147v116l934 360l-934 361v116l1079 -418v-118z" />
<glyph unicode="&#x25fc;" horiz-adv-x="1117" d="M0 0v1118h1118v-1118h-1118z" />
<glyph unicode="&#xf8ff;" horiz-adv-x="1110" d="M0 0v1558h1112v-1558h-1112zM108 108h895v1340h-895v-1340zM269 1025q14 149 92 223t201 74q76 0 137.5 -35t96.5 -100t35 -149q0 -49 -11 -87.5t-41 -81t-85 -92.5q-81 -72 -93 -112q-13 -43 -13 -157h-99l-5 37q0 122 28 176q29 57 101 128q66 64 87 100.5t21 79.5 q0 77 -49 131t-117 54q-70 0 -117.5 -50.5t-60.5 -156.5zM482 254v146h121v-146h-121z" />
</font>
</defs>
</svg>
